<svg width="44" height="40" viewBox="0 0 44 40" fill="none" xmlns="http://www.w3.org/2000/svg">
<path d="M0 31.4642V0H20.2449V5.94779H6.80648V12.5312H18.7614V18.479H6.80648V31.4642H0ZM29.7326 18.7514C29.7326 22.535 31.2016 24.4268 34.1393 24.4268C34.8084 24.4268 35.4338 24.336 36.0155 24.1544C36.5973 23.9728 37.0918 23.7609 37.499 23.5187V12.7128C37.179 12.6523 36.8009 12.6069 36.3645 12.5766C35.9282 12.5161 35.4192 12.4858 34.8374 12.4858C33.1213 12.4858 31.8415 13.0761 30.9979 14.2565C30.1544 15.437 29.7326 16.9353 29.7326 18.7514ZM44 28.4677C44 32.3723 43.0401 35.2629 41.1203 37.1396C39.2297 39.0465 36.2918 40 32.3068 40C30.9106 40 29.5144 39.8638 28.1182 39.5914C26.722 39.349 25.4277 39.0165 24.2351 38.5925L25.3695 32.9171C26.3876 33.3409 27.4493 33.6738 28.5546 33.916C29.689 34.1582 30.9688 34.2792 32.3941 34.2792C34.2557 34.2792 35.5647 33.8555 36.3209 33.0079C37.1063 32.1604 37.499 31.0708 37.499 29.7389V28.8763C36.8009 29.2093 36.0737 29.4665 35.3174 29.6481C34.5902 29.7995 33.7903 29.8751 32.9177 29.8751C29.7472 29.8751 27.3184 28.9065 25.6313 26.9694C23.9442 25.0019 23.1007 22.2626 23.1007 18.7514C23.1007 16.9959 23.3624 15.4068 23.886 13.9841C24.4096 12.5312 25.1659 11.2902 26.1548 10.2611C27.1729 9.23195 28.4092 8.44495 29.8635 7.90011C31.3179 7.32503 32.9613 7.03746 34.7938 7.03746C35.5792 7.03746 36.3791 7.08286 37.1935 7.17367C38.0371 7.23422 38.8661 7.32503 39.6805 7.44608C40.495 7.56714 41.2658 7.7185 41.993 7.90011C42.7493 8.05148 43.4183 8.21793 44 8.39955V28.4677Z" fill="white"/>
</svg>
